<?xml version="1.0" encoding="UTF-8" standalone="no"?><svg xmlns:svg="http://www.w3.org/2000/svg" xmlns="http://www.w3.org/2000/svg" xmlns:xlink="http://www.w3.org/1999/xlink" version="1.0" width="30px" height="30px" viewBox="0 0 128 128" xml:space="preserve"><g><path d="M59.6 0h8v40h-8V0z" fill="#fa0505"/><path d="M59.6 0h8v40h-8V0z" fill="#fecdcd" transform="rotate(30 64 64)"/><path d="M59.6 0h8v40h-8V0z" fill="#fecdcd" transform="rotate(60 64 64)"/><path d="M59.6 0h8v40h-8V0z" fill="#fecdcd" transform="rotate(90 64 64)"/><path d="M59.6 0h8v40h-8V0z" fill="#fecdcd" transform="rotate(120 64 64)"/><path d="M59.6 0h8v40h-8V0z" fill="#fdb4b4" transform="rotate(150 64 64)"/><path d="M59.6 0h8v40h-8V0z" fill="#fd9b9b" transform="rotate(180 64 64)"/><path d="M59.6 0h8v40h-8V0z" fill="#fc8282" transform="rotate(210 64 64)"/><path d="M59.6 0h8v40h-8V0z" fill="#fc6969" transform="rotate(240 64 64)"/><path d="M59.6 0h8v40h-8V0z" fill="#fb5050" transform="rotate(270 64 64)"/><path d="M59.6 0h8v40h-8V0z" fill="#fb3737" transform="rotate(300 64 64)"/><path d="M59.6 0h8v40h-8V0z" fill="#fa1e1e" transform="rotate(330 64 64)"/><animateTransform attributeName="transform" type="rotate" values="0 64 64;30 64 64;60 64 64;90 64 64;120 64 64;150 64 64;180 64 64;210 64 64;240 64 64;270 64 64;300 64 64;330 64 64" calcMode="discrete" dur="1080ms" repeatCount="indefinite"></animateTransform></g></svg>